<svg xmlns="http://www.w3.org/2000/svg" viewBox="0 0 590 589.98"><defs><style>.cls-1{fill:#77a75c;}.cls-2,.cls-3{fill:#fff;}.cls-2{fill-rule:evenodd;}</style></defs><title>Ресурс 1</title><g id="Слой_2" data-name="Слой 2"><g id="Guides_For_Artboard" data-name="Guides For Artboard"><circle class="cls-1" cx="295" cy="294.99" r="264.94"/><path class="cls-2" d="M295.19,345.5a16.35,16.35,0,1,1-16.34,16.35A16.39,16.39,0,0,1,295.19,345.5Z"/><path class="cls-2" d="M295.6,346.65a14.79,14.79,0,1,1-14.79,14.79A14.82,14.82,0,0,1,295.6,346.65Z"/><path class="cls-2" d="M296.13,347.69a13.22,13.22,0,1,1-13.22,13.22A13.25,13.25,0,0,1,296.13,347.69Z"/><path class="cls-2" d="M296.68,348.57a11.79,11.79,0,1,1-11.79,11.79A11.81,11.81,0,0,1,296.68,348.57Z"/><path class="cls-2" d="M297.23,349.35a10.46,10.46,0,1,1-10.46,10.46A10.48,10.48,0,0,1,297.23,349.35Z"/><path class="cls-2" d="M297.84,350.23a9,9,0,1,1-9,9A9,9,0,0,1,297.84,350.23Z"/><path class="cls-2" d="M298.38,351.11a7.55,7.55,0,1,1-7.55,7.55A7.56,7.56,0,0,1,298.38,351.11Z"/><path class="cls-2" d="M298.9,352.17a6,6,0,1,1-6,6A6,6,0,0,1,298.9,352.17Z"/><path class="cls-2" d="M299.27,353.2a4.57,4.57,0,1,1-4.56,4.57A4.58,4.58,0,0,1,299.27,353.2Z"/><path class="cls-2" d="M299.83,354.16a3,3,0,1,1-3.05,3A3.06,3.06,0,0,1,299.83,354.16Z"/><path class="cls-2" d="M300.05,354.93A2.06,2.06,0,1,1,298,357,2.06,2.06,0,0,1,300.05,354.93Z"/><path class="cls-2" d="M257.85,340.2a92.16,92.16,0,0,0-40.5-8.3c-17.14.22-34.36,4.3-51.7,9-10.27,2.75-18.74,3.31-25.62,2a26.8,26.8,0,0,1-14.59-7.6,32.79,32.79,0,0,1-7.85-14.67c-2.54-9.47-2.57-21.45-.69-35-5.63,10.65-8.87,21.24-9.53,30.79-.6,8.51.86,16.17,4.49,22.26s9.4,10.59,17.5,13c8.7,2.55,20.06,2.61,34.26-.63,6.87-1.57,13.6-3.25,20.11-4.88C212.37,338.88,236.73,332.8,257.85,340.2Z"/><path class="cls-2" d="M272.68,337.9c-10.26-13.31-23.72-23.34-39.1-31.69-16-8.69-34.12-15.55-52.91-22.35-11.77-4.27-21-9.38-27.9-15.2-8.6-7.23-13.66-15.55-15.64-24.67s-.86-18.88,2.86-29.14c3.51-9.69,9.36-19.8,17.14-30.08-14.12,8.92-24,19.46-29.77,30.42-5.15,9.8-7,19.94-5.61,29.53s6,18.66,13.75,26.35c9.86,9.78,24.8,17.34,44.66,20.92,19.55,3.54,37.24,8.63,52.82,16.31a116.42,116.42,0,0,1,39,30.3Z"/><path class="cls-2" d="M273.58,309.06a220.4,220.4,0,0,0-17.07-32c-11-17.28-24.38-33.84-39.51-52.07-29.07-35-35.36-61.11-26.43-81.21,7.87-17.69,27.49-30.48,53.71-40.49-18.56,1-33.92,4.82-45.59,11.09-11.19,6-19,14.3-22.79,24.4s-3.79,22.2.66,35.76c6.19,18.84,20.81,40.52,45.11,64,15.34,14.81,27.79,29.49,37.86,45A202.39,202.39,0,0,1,273.58,309.06Z"/><path class="cls-2" d="M323.31,203.31c7.42-38.1,6.87-62.14,1.06-80.51-4.94-15.62-13.76-27.28-24.72-40.07a335.27,335.27,0,0,1,12.87,60.5,333.49,333.49,0,0,1-.28,77.31c-1,8.94-2.25,18.5-3.46,28-3.43,27.05-6.83,53.88-7.82,80.89l.19,0c3.7-40.82,9.76-68.45,15.75-95.8,2.19-10,4.38-20,6.41-30.39ZM290.73,82.72c-11,12.8-19.77,24.45-24.71,40.08-5.82,18.37-6.37,42.41,1.05,80.51,2,10.42,4.22,20.39,6.41,30.39,6,27.35,12,55,15.75,95.8l.13,0h.06c-1-27-4.38-53.85-7.82-80.9-1.2-9.53-2.42-19.09-3.46-28a333.49,333.49,0,0,1-.28-77.31A336.24,336.24,0,0,1,290.73,82.72Z"/><path class="cls-2" d="M316.77,309.06a220.4,220.4,0,0,1,17.07-32c11-17.28,24.38-33.84,39.51-52.07,29.07-35,35.36-61.11,26.43-81.21-7.87-17.69-27.49-30.48-53.71-40.49,18.55,1,33.92,4.82,45.58,11.09,11.21,6,19,14.3,22.8,24.4s3.79,22.2-.67,35.76c-6.18,18.84-20.8,40.52-45.1,64-15.34,14.81-27.79,29.49-37.86,45A202.39,202.39,0,0,0,316.77,309.06Z"/><path class="cls-2" d="M332.54,340.2A92.09,92.09,0,0,1,373,331.9c17.15.22,34.36,4.3,51.7,9,10.27,2.75,18.74,3.31,25.62,2a26.76,26.76,0,0,0,14.59-7.6,32.79,32.79,0,0,0,7.85-14.67c2.54-9.47,2.58-21.45.7-35,5.62,10.65,8.86,21.24,9.53,30.79.59,8.51-.86,16.17-4.5,22.26s-9.39,10.59-17.5,13c-8.7,2.55-20.06,2.61-34.26-.63-6.86-1.57-13.59-3.25-20.1-4.88C378,338.88,353.66,332.8,332.54,340.2Z"/><path class="cls-2" d="M317.7,337.9c10.27-13.31,23.72-23.34,39.1-31.69,16-8.69,34.13-15.55,52.92-22.35,11.77-4.27,21-9.38,27.9-15.2,8.6-7.23,13.66-15.55,15.64-24.67s.86-18.88-2.86-29.14c-3.51-9.69-9.36-19.8-17.14-30.08,14.12,8.92,24,19.46,29.77,30.42,5.15,9.8,7,19.94,5.61,29.53s-6,18.66-13.76,26.35c-9.86,9.78-24.79,17.34-44.65,20.92-19.55,3.54-37.25,8.63-52.83,16.31a116.28,116.28,0,0,0-39,30.3Z"/><rect class="cls-3" x="127.45" y="445.54" width="335.49" height="4.88"/><path class="cls-2" d="M321.82,359.41H462.93v4.88H321.82c.07-.81.11-1.62.11-2.44S321.89,360.21,321.82,359.41Z"/><path class="cls-2" d="M127.45,359.41H268.56c-.07.8-.11,1.62-.11,2.44s0,1.63.11,2.44H127.45Z"/><path class="cls-2" d="M181.67,447.7H161.79V410.19H147.33v26.7H127.45V375.72h19.88v25.72h14.46V375.72h19.88v72Zm73.13-10.81H234.92V396l-18.07,32.26a29.94,29.94,0,0,1-5,7.09,9.79,9.79,0,0,1-7,2.92q-5.56,0-8.13-3c-1.72-2-2.57-4.8-2.57-8.41V375.72h19.88v40.59l16.82-30.58a33.45,33.45,0,0,1,5.28-7.65,10.85,10.85,0,0,1,7.93-3.75c3.7,0,6.42,1,8.13,3s2.57,4.79,2.57,8.41v51.16Zm71.74,0h-22l-16.68-29.2,11.49-19.43A26.84,26.84,0,0,0,318,375.72h.3l-13.49,23.21,21.69,38Zm-39.62,0H267V375.72h5.29a26.9,26.9,0,0,0,14.59,11.56v49.61Zm104.27-29.48q0,13.77-9.38,22.32t-23.15,8.55a30.74,30.74,0,0,1-22.45-9q-9.12-9-9.11-22.59,0-14.18,8.69-23.29t22.73-9.1A31.28,31.28,0,0,1,381.67,384a32.12,32.12,0,0,1,9.52,23.42Zm-21.82-.13q0-10.71-1.39-15.71-2.5-8.76-9.46-8.76-5.14,0-7.51,8.34a56.58,56.58,0,0,0-1.8,15.43q0,12.51,2.57,18.14t8.13,5.63q5.43,0,7.79-9a54.61,54.61,0,0,0,1.67-14Zm93.56.28q0,12.65-8.06,20.57-8.89,8.76-25.3,8.76h-7.93v13.53H401.76v-74.7h24.75q15.57,0,25,6.81,11.4,8.21,11.4,25Zm-22.24,0q0-9.74-3.34-16-4.31-7.94-13.21-7.93h-2.5v44.63l2.78.28a14.4,14.4,0,0,0,11.89-5.49Q440.69,417.57,440.69,407.56Z"/><path class="cls-2" d="M120.22,288.28c-1.51,12.18-1.37,22.88.91,31.36a29.18,29.18,0,0,0,6.93,13.07,23.17,23.17,0,0,0,12.66,6.55c6.34,1.22,14.27.67,24-1.93,17.59-4.73,35.06-8.87,52.6-9.09,16.18-.2,32.37,2.93,48.67,12a94.12,94.12,0,0,0-31.07-14.17c-14.17-3.63-31-4.79-51.47-2.63-21.58,2.28-37.17-1.12-47.73-9.28-7.93-6.14-13-14.89-15.49-25.87Zm39.44-100.79c-5.38,18.16-6.71,35.22-2,50.64,5.59,18.22,19.57,34,45.24,46.55l.15.07.1,0q8,2.75,15.13,5.75t13.56,6.29C252,307.14,266.11,319.43,274,333.7c-10.4-12.8-23.66-22.55-38.69-30.7-16.19-8.78-34.45-15.71-53.41-22.57-11.33-4.11-20.18-9-26.78-14.57-8-6.69-12.62-14.32-14.43-22.65s-.77-17.5,2.72-27.11c3.32-9.18,8.86-18.79,16.24-28.61Zm87.2-81.24c-16.61,15.1-28.81,32.57-33,52.66-4.83,23,.82,49.31,22.32,79.18l2.44,3.38c20.36,28.26,35.27,49,43.4,79.13a214.86,214.86,0,0,0-22.39-45.47C248.45,257.67,235,241,219.81,222.69c-28-33.77-34.25-58.59-25.89-77.4,7.54-16.95,27-29.29,52.94-39ZM297,86.64V329l.29,0c1-26.92,4.41-53.8,7.85-80.91,1.15-9.07,2.31-18.18,3.45-28a329.68,329.68,0,0,0,.28-76.48,330.31,330.31,0,0,0-11.87-57ZM293.36,329V86.66a323.1,323.1,0,0,0-11.58,133.47c1.13,9.8,2.29,18.91,3.44,28,3.44,27.11,6.85,54,7.85,80.91Zm50.12-222.76c26,9.75,45.41,22.09,52.95,39,8.36,18.81,2.14,43.63-25.89,77.4-15.22,18.32-28.64,35-39.78,52.44a214.39,214.39,0,0,0-22.39,45.47c8.13-30.18,23-50.87,43.4-79.13l2.44-3.38c21.5-29.87,27.15-56.17,22.31-79.18-4.22-20.09-16.42-37.56-33-52.66Zm87.24,81.24c5.38,18.16,6.72,35.22,2,50.64-5.59,18.22-19.58,34-45.25,46.55l-.14.07-.1,0q-8,2.75-15.14,5.75t-13.56,6.29c-20.11,10.32-34.25,22.61-42.15,36.88,10.41-12.8,23.66-22.55,38.69-30.7,16.19-8.78,34.46-15.71,53.41-22.57,11.33-4.11,20.18-9,26.79-14.57,7.95-6.69,12.62-14.32,14.42-22.65s.77-17.5-2.71-27.11c-3.33-9.18-8.87-18.79-16.25-28.61Zm39.44,100.79c-2.53,11-7.56,19.73-15.49,25.87-10.55,8.16-26.15,11.56-47.73,9.28-20.45-2.16-37.3-1-51.47,2.63a94.12,94.12,0,0,0-31.07,14.17c16.3-9.06,32.49-12.19,48.67-12,17.54.22,35,4.36,52.6,9.09,9.72,2.6,17.65,3.15,24,1.93a23.24,23.24,0,0,0,12.67-6.55,29.28,29.28,0,0,0,6.93-13.07C471.53,311.16,471.68,300.46,470.16,288.28Z"/><path class="cls-1" d="M295,0C132.08,0,0,132.07,0,295S132.08,590,295,590,590,457.92,590,295,457.92,0,295,0Zm0,575C140.38,575,15,449.61,15,295S140.38,15,295,15,575,140.37,575,295,449.63,575,295,575Z"/></g></g></svg>